<svg width="39" height="31" viewBox="0 0 39 31" fill="none" xmlns="http://www.w3.org/2000/svg">
<path d="M18.7854 0.729914C19.1776 0.329326 19.8224 0.329326 20.2146 0.729914L34.7237 15.5504C35.3433 16.1834 34.8949 17.25 34.0091 17.25H4.99092C4.10513 17.25 3.65668 16.1834 4.27635 15.5504L18.7854 0.729914Z" fill="#0466CD"/>
<rect x="8.6665" y="17" width="21.6667" height="8" fill="#0466CD"/>
<path d="M8.6665 25H17.3332V30C17.3332 30.5523 16.8855 31 16.3332 31H9.6665C9.11422 31 8.6665 30.5523 8.6665 30V25Z" fill="#0466CD"/>
<path d="M21.6665 25H30.3332V30C30.3332 30.5523 29.8855 31 29.3332 31H22.6665C22.1142 31 21.6665 30.5523 21.6665 30V25Z" fill="#0466CD"/>
</svg>
